HIERARCHY
ROOT Hips
{
	OFFSET 0.000000 0.000000 0.000000
	CHANNELS 6 Xposition Yposition Zposition Xrotation Yrotation Zrotation
	JOINT LeftUpLeg_virtual
	{
		OFFSET 0.000000 0.000000 0.000000
		CHANNELS 3 Xrotation Yrotation Zrotation
		JOINT LeftUpLeg
		{
			OFFSET 15.427100 -6.655098 0.678600
			CHANNELS 3 Xrotation Yrotation Zrotation
			JOINT LeftLeg
			{
				OFFSET 4.081073 -39.591068 13.024000
				CHANNELS 3 Xrotation Yrotation Zrotation
				JOINT LeftFoot
				{
					OFFSET -4.081074 -37.707932 -15.979700
					CHANNELS 3 Xrotation Yrotation Zrotation
					JOINT LeftToeBase
					{
						OFFSET 5.346399 -15.068900 20.645000
						CHANNELS 3 Xrotation Yrotation Zrotation
						JOINT LeftToe_End
						{
							OFFSET 2.754700 0.931300 11.300900
							CHANNELS 3 Xrotation Yrotation Zrotation
							End Site
							{
								OFFSET 0 0 0
							}
						}
					}
				}
			}
		}
	}
	JOINT RightUpLeg_virtual
	{
		OFFSET 0.000000 0.000000 0.000000
		CHANNELS 3 Xrotation Yrotation Zrotation
		JOINT RightUpLeg
		{
			OFFSET -15.569500 -6.655098 0.678600
			CHANNELS 3 Xrotation Yrotation Zrotation
			JOINT RightLeg
			{
				OFFSET -4.081825 -39.591045 13.023800
				CHANNELS 3 Xrotation Yrotation Zrotation
				JOINT RightFoot
				{
					OFFSET 4.081824 -37.707954 -15.979600
					CHANNELS 3 Xrotation Yrotation Zrotation
					JOINT RightToeBase
					{
						OFFSET -5.346400 -15.068900 20.645000
						CHANNELS 3 Xrotation Yrotation Zrotation
						JOINT RightToe_End
						{
							OFFSET -2.754700 0.931300 11.300900
							CHANNELS 3 Xrotation Yrotation Zrotation
							End Site
							{
								OFFSET 0 0 0
							}
						}
					}
				}
			}
		}
	}
	JOINT Spine_virtual
	{
		OFFSET 0.000000 0.000000 0.000000
		CHANNELS 3 Xrotation Yrotation Zrotation
		JOINT Spine
		{
			OFFSET -0.279200 12.230698 -2.892100
			CHANNELS 3 Xrotation Yrotation Zrotation
			JOINT Spine1
			{
				OFFSET -0.232667 10.192268 -1.242267
				CHANNELS 3 Xrotation Yrotation Zrotation
				JOINT Spine1_split
				{
					OFFSET -0.232667 10.192268 -1.242267
					CHANNELS 3 Xrotation Yrotation Zrotation
					JOINT Spine2
					{
						OFFSET -0.232667 10.192268 -1.242267
						CHANNELS 3 Xrotation Yrotation Zrotation
						JOINT Neck_virtual
						{
							OFFSET 0.000000 0.000000 0.000000
							CHANNELS 3 Xrotation Yrotation Zrotation
							JOINT Neck
							{
								OFFSET -0.418800 17.814194 8.416900
								CHANNELS 3 Xrotation Yrotation Zrotation
								JOINT Head
								{
									OFFSET 0.000000 7.031097 3.806800
									CHANNELS 3 Xrotation Yrotation Zrotation
									JOINT HeadTop_End
									{
										OFFSET 0.000000 24.646606 12.978600
										CHANNELS 3 Xrotation Yrotation Zrotation
										End Site
										{
											OFFSET 0 0 0
										}
									}
								}
							}
						}
						JOINT LeftShoulder_virtual
						{
							OFFSET 0.000000 0.000000 0.000000
							CHANNELS 3 Xrotation Yrotation Zrotation
							JOINT LeftShoulder
							{
								OFFSET 8.476499 7.247704 -3.868750
								CHANNELS 3 Xrotation Yrotation Zrotation
								JOINT LeftShoulder_split
								{
									OFFSET 8.476499 7.247704 -3.868750
									CHANNELS 3 Xrotation Yrotation Zrotation
									JOINT LeftArm
									{
										OFFSET 9.308998 -2.777710 0.208600
										CHANNELS 3 Xrotation Yrotation Zrotation
										JOINT LeftForeArm
										{
											OFFSET 29.972298 0.000000 0.000000
											CHANNELS 3 Xrotation Yrotation Zrotation
											JOINT LeftHand
											{
												OFFSET 26.026505 0.000000 0.000000
												CHANNELS 3 Xrotation Yrotation Zrotation
												End Site
												{
													OFFSET 0 0 0
												}
											}
										}
									}
								}
							}
						}
						JOINT RightShoulder_virtual
						{
							OFFSET 0.000000 0.000000 0.000000
							CHANNELS 3 Xrotation Yrotation Zrotation
							JOINT RightShoulder
							{
								OFFSET -7.570500 7.247704 -3.868750
								CHANNELS 3 Xrotation Yrotation Zrotation
								JOINT RightShoulder_split
								{
									OFFSET -7.570500 7.247704 -3.868750
									CHANNELS 3 Xrotation Yrotation Zrotation
									JOINT RightArm
									{
										OFFSET -9.308998 -2.777710 0.208500
										CHANNELS 3 Xrotation Yrotation Zrotation
										JOINT RightForeArm
										{
											OFFSET -29.972300 0.000000 0.000000
											CHANNELS 3 Xrotation Yrotation Zrotation
											JOINT RightHand
											{
												OFFSET -26.026505 0.000000 0.000000
												CHANNELS 3 Xrotation Yrotation Zrotation
												End Site
												{
													OFFSET 0 0 0
												}
											}
										}
									}
								}
							}
						}
					}
				}
			}
		}
	}
}
MOTION
Frames: 11
Frame Time: 0.03333333
-0.215741 72.619392 -6.308178 0.000000 0.000000 0.000000 12.300024 3.437440 -3.573713 14.149887 2.497656 12.534460 33.665053 -4.537790 12.563593 -23.248198 3.480874 -8.428231 -25.962570 -0.572113 -5.135431 0.000000 0.000000 0.000000 14.162527 6.435857 -4.333449 -63.286750 2.225234 -2.906082 61.737725 -4.766134 0.242983 -1.140457 3.309601 -9.740247 -2.472378 1.098270 0.204875 0.000000 0.000000 0.000000 12.747316 1.859301 -3.649519 0.152264 -3.713529 4.537786 2.607780 -2.430830 2.581822 0.930814 -1.615657 -0.131949 0.000000 0.000000 0.000000 2.895870 -2.672391 2.890536 -5.132299 1.674351 -1.406437 -17.007075 -9.344598 7.278623 0.000000 0.000000 0.000000 3.386866 -2.880071 1.947623 -0.416481 2.297758 -2.769605 -3.100236 2.805360 -2.948692 -16.893131 5.861329 -60.429621 -174.272413 -73.564621 -172.003534 0.000000 0.000000 0.000000 4.871611 -1.965136 2.814248 0.576623 -8.838876 15.906857 -0.794970 5.694560 0.716669 -27.484002 8.286905 54.850425 -173.790475 55.378095 173.203516 0.000000 0.000000 0.000000 
-0.968269 74.361885 -6.350090 0.000000 0.000000 0.000000 12.526090 3.584319 -3.317405 12.600287 1.355701 11.633778 33.934494 -2.896106 11.938126 -17.267287 3.903757 -7.794419 -22.560147 0.381932 -7.594697 0.000000 0.000000 0.000000 13.782101 5.326343 -4.015586 -62.620253 1.660626 -4.561581 61.715240 -4.354608 0.734905 -0.431133 3.468722 -9.367373 -1.571715 1.152999 0.401705 0.000000 0.000000 0.000000 12.883729 1.789287 -3.501282 0.242453 -3.550725 4.834615 2.569613 -2.432816 2.326177 0.449263 -0.585996 -0.853636 0.000000 0.000000 0.000000 3.027770 -2.574583 2.556672 -4.799022 1.861665 -1.810400 -16.297902 -9.137128 7.593822 0.000000 0.000000 0.000000 3.533486 -2.830505 1.795778 -0.368853 1.116859 -1.882956 -2.980055 1.489613 -1.769980 -21.102013 4.559823 -60.112297 -173.750600 -74.442594 -171.457501 0.000000 0.000000 0.000000 4.993472 -1.883572 2.555784 0.540184 -8.214950 15.506350 -2.078234 5.914429 -0.191889 -31.252709 10.241630 54.559111 -174.698453 53.918808 173.994862 0.000000 0.000000 0.000000 
-1.325534 78.052124 -6.102798 0.000000 0.000000 0.000000 12.106597 4.344639 -3.351298 7.813748 2.108828 11.180296 35.582154 -0.779109 10.021396 -5.116746 3.732356 -6.113795 -11.709973 0.498948 -10.493280 0.000000 0.000000 0.000000 13.023775 4.177228 -3.821731 -59.687261 2.095141 -5.454169 57.338700 -3.317152 0.945613 2.026758 3.447950 -8.696299 -1.521932 1.103289 0.726822 0.000000 0.000000 0.000000 12.613757 1.928837 -3.169875 0.925861 -2.738599 5.260977 2.544991 -2.207727 1.703236 0.267656 0.459203 -1.059393 0.000000 0.000000 0.000000 3.029397 -2.274779 1.813332 -4.114984 1.901631 -2.142062 -14.822142 -8.991833 7.995733 0.000000 0.000000 0.000000 3.655029 -2.494984 1.353123 -0.271640 -0.889961 -1.005120 -2.279494 0.924590 -1.037794 -28.002182 1.281255 -58.912424 -172.010883 -77.062484 -169.807204 0.000000 0.000000 0.000000 5.056483 -1.661738 1.920994 0.567159 -7.488066 14.280612 -2.303416 4.760182 -0.318700 -38.502138 13.693759 54.295021 -174.947236 55.157876 174.265064 0.000000 0.000000 0.000000 
-1.063163 82.863213 -5.508995 0.000000 0.000000 0.000000 11.273171 4.920284 -3.585036 0.982512 3.849157 11.107811 39.056015 1.279514 7.753981 9.589890 3.249474 -3.927034 0.549704 -0.325884 -12.366571 0.000000 0.000000 0.000000 11.956823 3.613267 -3.821877 -54.324022 3.198960 -5.336214 49.477873 -2.161255 1.311707 6.021946 3.206249 -8.011757 -3.961507 0.906925 1.056007 0.000000 0.000000 0.000000 11.812131 2.335997 -2.732693 2.086189 -1.544606 5.593287 2.674927 -1.823816 0.985725 0.116257 1.275074 -0.587477 0.000000 0.000000 0.000000 3.043197 -1.812682 1.025764 -3.232261 1.888604 -2.439842 -12.974700 -8.838081 8.433193 0.000000 0.000000 0.000000 3.815646 -1.972616 0.880975 -0.128289 -3.389601 -0.137061 -1.689383 1.219608 -0.800889 -36.539852 -3.369188 -57.801842 -167.808541 -81.313477 -165.843550 0.000000 0.000000 0.000000 5.132745 -1.353427 1.184457 0.593275 -6.849244 12.189929 -1.817862 2.850507 -0.194741 -47.721630 17.534253 54.742976 -174.654153 59.157716 174.165193 0.000000 0.000000 0.000000 
-0.599026 87.907883 -4.163826 0.000000 0.000000 0.000000 9.890974 5.008718 -3.613002 -6.865889 5.688319 10.722014 44.540586 3.255184 5.919414 21.164854 2.436597 -0.771481 8.234658 -1.134508 -12.087494 0.000000 0.000000 0.000000 10.482001 3.874595 -3.865442 -47.511428 4.290126 -4.598497 40.062075 -1.245804 2.040591 10.760302 3.089575 -6.909655 -8.983553 0.574149 1.199797 0.000000 0.000000 0.000000 10.584252 3.109838 -2.315635 3.626263 -0.308986 5.572856 3.047422 -1.395977 0.457155 0.319755 1.502500 0.136526 0.000000 0.000000 0.000000 3.206187 -1.315673 0.515802 -2.291934 1.833071 -2.729181 -11.040479 -8.634256 8.900753 0.000000 0.000000 0.000000 4.113029 -1.405805 0.645619 0.031209 -5.901783 1.027776 -1.468071 1.805866 -1.033843 -46.098354 -8.695065 -57.594894 -150.537847 -86.457682 -148.873590 0.000000 0.000000 0.000000 5.250324 -1.062208 0.666938 0.569882 -6.419438 9.065484 -1.216079 1.177636 -0.245536 -57.725931 20.584698 56.096303 -173.635539 65.812930 173.485985 0.000000 0.000000 0.000000 
-0.281188 92.044083 -2.090889 0.000000 0.000000 0.000000 7.801757 4.988657 -3.246537 -14.855578 6.968755 9.227734 53.189463 5.298106 5.036649 26.607236 1.208704 3.370347 10.691138 -1.578163 -10.276881 0.000000 0.000000 0.000000 8.404596 4.498324 -3.735384 -40.626484 4.893023 -3.580375 31.510313 -0.560739 3.064037 14.580950 3.485085 -5.160072 -14.611781 0.124423 1.134350 0.000000 0.000000 0.000000 8.632785 4.000151 -1.965463 5.407437 0.621844 5.008537 3.635886 -1.051907 0.304003 0.670687 1.646888 0.712110 0.000000 0.000000 0.000000 3.614508 -0.926731 0.475979 -1.376847 1.738514 -3.037771 -9.137938 -8.263226 9.443244 0.000000 0.000000 0.000000 4.556684 -0.919880 0.810213 0.206300 -7.864791 2.833918 -1.351783 2.268648 -1.357427 -55.860699 -13.258026 -58.652883 -31.325006 -87.273507 -30.007227 0.000000 0.000000 0.000000 5.494886 -0.885382 0.562769 0.472629 -6.305318 4.767079 -1.077214 -0.208564 -0.606800 -67.219150 22.128227 58.308580 -171.395264 74.462067 171.756322 0.000000 0.000000 0.000000 
-0.160930 94.617630 0.048557 0.000000 0.000000 0.000000 5.407273 4.951316 -2.533370 -22.806048 7.034175 5.878817 65.388652 7.436555 5.122943 26.811715 -0.322543 7.236979 10.898338 -1.810861 -8.204514 0.000000 0.000000 0.000000 5.925235 5.109460 -3.124384 -34.746637 4.741189 -2.581945 25.753725 0.076182 4.048806 15.770391 4.605196 -3.165875 -18.633139 -0.328444 0.797891 0.000000 0.000000 0.000000 6.318833 4.717148 -1.647862 7.281092 1.093271 3.977936 4.349170 -0.856588 0.536047 0.729870 1.914760 0.792280 0.000000 0.000000 0.000000 4.168178 -0.688903 0.895127 -0.413796 1.572785 -3.350956 -7.296327 -7.762597 10.072150 0.000000 0.000000 0.000000 5.155809 -0.611359 1.340413 0.486853 -8.898849 5.420834 -1.312877 2.390161 -1.378140 -65.160394 -15.982144 -60.557174 -7.629635 -82.834915 -6.650600 0.000000 0.000000 0.000000 5.803786 -0.868029 0.821472 0.292662 -6.406100 -0.556813 -1.319267 -1.160556 -1.359208 -75.862365 21.759051 60.985735 -163.630350 83.913792 164.516280 0.000000 0.000000 0.000000 
-0.360830 95.174797 1.849560 0.000000 0.000000 0.000000 2.829453 4.609281 -1.600883 -31.736156 6.264454 1.522282 78.915760 9.811358 5.495048 25.073788 -1.338025 9.667587 10.216747 -1.701598 -6.103140 0.000000 0.000000 0.000000 3.271093 4.874206 -2.154065 -30.700959 3.635795 -1.602624 23.711705 0.576792 4.731038 13.373983 5.977869 -1.498923 -19.514141 -0.637598 0.362016 0.000000 0.000000 0.000000 3.795280 5.168379 -1.381931 9.211363 1.089523 2.686381 5.005450 -0.799898 0.996690 0.615433 1.936808 0.395472 0.000000 0.000000 0.000000 4.646696 -0.637192 1.526630 0.754946 1.360850 -3.549224 -5.536708 -7.158424 10.771104 0.000000 0.000000 0.000000 5.732774 -0.522002 2.011771 0.843032 -9.018741 8.821200 -1.202015 2.351493 -0.925170 -73.265213 -16.640462 -62.658339 -1.919802 -79.590808 -1.283240 0.000000 0.000000 0.000000 6.115297 -0.966354 1.266873 0.039605 -6.568118 -6.626833 -1.794627 -1.359837 -1.715715 -83.182074 19.564592 63.718083 -21.010680 87.267770 22.308429 0.000000 0.000000 0.000000 
-0.640619 93.818939 3.350414 0.000000 0.000000 0.000000 0.281937 3.851197 -0.679162 -41.846554 5.843600 -2.039890 91.075730 12.191044 5.283121 25.119238 -0.849113 10.067492 9.810605 -1.303051 -4.194517 0.000000 0.000000 0.000000 0.793312 3.658100 -1.188409 -28.490838 1.804081 -0.603035 25.652020 0.842778 4.885594 7.377120 6.795166 -0.787419 -17.049221 -0.785347 0.088177 0.000000 0.000000 0.000000 1.048340 5.455343 -1.065957 11.115458 0.793305 1.398767 5.437362 -0.826799 1.427302 0.336523 1.863852 0.063568 0.000000 0.000000 0.000000 4.878565 -0.726603 2.060747 2.220691 1.080268 -3.506428 -3.996424 -6.452066 11.463489 0.000000 0.000000 0.000000 6.066119 -0.599793 2.525573 1.141262 -8.436524 12.540727 -1.239267 2.090755 -0.208167 -79.504877 -15.525017 -64.299333 1.542660 -78.422600 1.831173 0.000000 0.000000 0.000000 6.320302 -1.101184 1.640816 -0.234478 -6.461741 -12.743982 -2.068667 -1.325131 -1.441394 -88.878909 16.031791 66.128901 -2.552563 82.113668 4.054765 0.000000 0.000000 0.000000 
-0.716883 91.124519 4.117294 0.000000 0.000000 0.000000 -2.214651 2.380031 0.032060 -52.599707 6.300980 -3.824866 100.472745 14.063129 4.322937 28.665440 1.090513 8.800698 11.702721 -0.791131 -3.365111 0.000000 0.000000 0.000000 -1.316871 1.848758 -0.378632 -27.603929 -0.349064 0.240145 30.678379 0.673879 4.361466 -0.807684 6.725824 -1.466659 -12.839628 -0.787941 0.071159 0.000000 0.000000 0.000000 -1.636719 5.326208 -0.666501 12.853585 0.456430 0.316806 5.554307 -0.879211 1.572384 0.103383 1.382222 0.173681 0.000000 0.000000 0.000000 4.772955 -0.857788 2.211086 3.944158 0.836688 -3.197944 -2.935998 -5.804007 12.017356 0.000000 0.000000 0.000000 6.064900 -0.772040 2.639632 1.326405 -7.575511 15.852094 -1.436469 1.724654 0.181574 -84.122474 -13.728784 -65.439626 4.893840 -78.877907 4.831064 0.000000 0.000000 0.000000 6.204717 -1.232995 1.712009 -0.434598 -5.733841 -18.181096 -1.944964 -1.317926 -0.322578 -93.116912 11.996382 67.578274 -0.409187 80.357449 1.832017 0.000000 0.000000 0.000000 
-0.540721 87.886589 4.792877 0.000000 0.000000 0.000000 -4.635656 0.227325 0.600603 -62.549329 7.214545 -3.457057 106.937745 14.923118 3.161079 34.447298 3.230249 6.511794 15.150546 -0.324329 -3.567122 0.000000 0.000000 0.000000 -3.000000 0.049006 0.224547 -27.608781 -2.425235 0.637356 37.543217 0.302288 3.416841 -9.103026 6.208660 -3.405988 -7.773313 -0.673404 0.391481 0.000000 0.000000 0.000000 -4.007797 4.690003 -0.107436 14.316337 0.276698 -0.562474 5.346631 -0.919010 1.307205 0.058645 0.736607 0.463144 0.000000 0.000000 0.000000 4.388228 -0.969037 1.898631 5.630361 0.708227 -2.769437 -2.628223 -5.304156 12.342733 0.000000 0.000000 0.000000 5.682144 -0.951817 2.286224 1.430688 -7.016506 18.234918 -1.531461 1.082702 0.291635 -87.241303 -12.189054 -66.076042 8.341205 -79.939673 7.949959 0.000000 0.000000 0.000000 5.735012 -1.282676 1.425274 -0.496139 -4.363606 -22.303190 -1.552779 -1.613462 1.118464 -96.067943 8.340622 67.862308 -0.369584 80.837577 1.395594 0.000000 0.000000 0.000000 
